<svg xmlns="http://www.w3.org/2000/svg" xmlns:xlink="http://www.w3.org/1999/xlink" width="500" zoomAndPan="magnify" viewBox="0 0 375 374.999991" height="500" preserveAspectRatio="xMidYMid meet" version="1.0"><defs><clipPath id="290e1d4fef"><path d="M 4.453125 4 L 370.453125 4 L 370.453125 370.761719 L 4.453125 370.761719 Z M 4.453125 4 " clip-rule="nonzero"/></clipPath></defs><g clip-path="url(#290e1d4fef)"><path fill="#252524" d="M 187.5 4.875 C 288.539062 4.875 370.441406 86.78125 370.441406 187.820312 C 370.441406 288.855469 288.539062 370.761719 187.5 370.761719 C 86.460938 370.761719 4.558594 288.855469 4.558594 187.820312 C 4.558594 86.78125 86.460938 4.875 187.5 4.875 " fill-opacity="1" fill-rule="nonzero"/></g><path fill="#c1733e" d="M 11.707031 187.820312 C 11.707031 90.730469 90.410156 12.023438 187.5 12.023438 C 284.589844 12.023438 363.292969 90.730469 363.292969 187.820312 C 363.292969 284.90625 284.589844 363.613281 187.5 363.613281 C 90.410156 363.613281 11.707031 284.90625 11.707031 187.820312 " fill-opacity="1" fill-rule="nonzero"/><path fill="#252524" d="M 136.84375 356.203125 C 127.53125 353.261719 118.484375 349.699219 109.808594 345.554688 C 72.929688 327.355469 43.351562 296.605469 26.660156 258.878906 C 32.136719 237.109375 37.902344 228.21875 43.957031 232.210938 C 66.933594 197.78125 106.65625 187.421875 163.117188 201.140625 C 161.429688 192.875 162.328125 180.71875 165.8125 164.667969 C 161.472656 162.597656 162.296875 123.230469 170.582031 133.992188 C 170.367188 127.25 171.679688 121.585938 174.515625 117.003906 C 176.460938 103.105469 179.015625 91.984375 182.1875 83.636719 C 151.117188 38.785156 166.644531 -4.234375 236.28125 32.652344 C 263.496094 31.496094 280.972656 40.546875 288.710938 59.804688 C 337.144531 91.257812 336.863281 113.363281 287.878906 126.117188 L 279.175781 149.121094 C 278.804688 157.835938 276.246094 165.089844 271.507812 170.878906 C 277.292969 171.550781 272.113281 182.46875 255.960938 203.628906 C 260.695312 213.46875 262.976562 222.859375 262.800781 231.8125 C 293.398438 242.21875 313.039062 265.398438 321.722656 301.347656 C 289.480469 339.433594 241.3125 363.613281 187.5 363.613281 C 169.890625 363.613281 152.886719 361.023438 136.84375 356.203125 " fill-opacity="1" fill-rule="nonzero"/><path fill="#b5bac0" d="M 264.703125 117.722656 C 261.328125 127.449219 256.4375 136.949219 250.015625 141.933594 C 231.351562 140.574219 212.488281 134.519531 181.773438 119.3125 C 181.792969 110.777344 185.902344 96.402344 188.660156 83.097656 C 178.503906 73.539062 169.683594 59.175781 167.039062 40.203125 C 168.859375 18.355469 191.265625 8.804688 236.28125 32.652344 C 263.496094 31.496094 280.972656 40.546875 288.710938 59.804688 C 306.90625 71.625 318.230469 82.121094 322.671875 91.300781 C 322.363281 108.113281 321.457031 112.339844 293.765625 118.867188 C 305.992188 110.15625 310.773438 99.113281 308.101562 85.738281 C 294.003906 104.289062 278.980469 111.273438 263.039062 106.695312 L 277.8125 88.339844 C 266.488281 101.941406 252.207031 104.675781 234.972656 96.539062 C 238.835938 96.917969 242.949219 97.128906 247.320312 97.164062 C 216.957031 89.214844 198.207031 76.03125 191.070312 57.613281 C 190.867188 80.011719 204.6875 92.894531 232.53125 96.269531 C 238.347656 101.480469 253.550781 111.035156 264.703125 117.722656 " fill-opacity="1" fill-rule="nonzero"/><path fill="#b5bac0" d="M 211.84375 184.746094 C 221.148438 190.773438 217.59375 197.253906 205.492188 193.148438 C 209.914062 191.703125 212.035156 188.902344 211.84375 184.746094 " fill-opacity="1" fill-rule="evenodd"/><path fill="#b5bac0" d="M 189.066406 200.273438 C 191.304688 206 201 211.085938 213.667969 206.886719 C 208.839844 206.34375 200.53125 205.796875 198 202.40625 C 192.03125 203.097656 192.324219 201.613281 189.066406 200.273438 " fill-opacity="1" fill-rule="evenodd"/><path fill="#b5bac0" d="M 226.664062 169.019531 C 226.664062 168.328125 227.226562 167.769531 227.914062 167.769531 C 228.605469 167.769531 229.164062 168.328125 229.164062 169.019531 C 229.164062 169.710938 228.605469 170.269531 227.914062 170.269531 C 227.226562 170.269531 226.664062 169.710938 226.664062 169.019531 Z M 249.179688 148.898438 L 246.925781 158.882812 L 250.535156 172.730469 C 244.785156 182.878906 238.054688 190.371094 230.339844 195.207031 C 216.714844 189.167969 212.644531 180.121094 218.132812 168.074219 C 219.933594 171.066406 222.054688 173.023438 224.496094 173.945312 C 222.585938 172.242188 221.261719 170.425781 220.53125 168.496094 L 224.863281 165.910156 C 225.183594 165.945312 225.496094 165.988281 225.804688 166.035156 C 224.808594 166.730469 224.160156 167.886719 224.160156 169.199219 C 224.160156 171.324219 225.882812 173.050781 228.011719 173.050781 C 230.140625 173.050781 231.871094 171.324219 231.871094 169.199219 C 231.871094 168.835938 231.816406 168.484375 231.726562 168.152344 C 233.660156 169.367188 235.238281 171.039062 236.457031 173.179688 C 236.152344 168.132812 232.246094 165.207031 224.746094 164.402344 L 218.699219 166.875 C 219.191406 165.894531 219.742188 164.890625 220.355469 163.871094 L 236.007812 163.195312 L 241.480469 168.414062 L 239.648438 159.78125 L 215.589844 158.203125 C 212.101562 164.84375 212.558594 174.097656 208.117188 181.585938 C 210.371094 200.128906 186.84375 191.105469 196.296875 179.300781 C 190.515625 179.644531 185.40625 182.148438 192.886719 191.117188 C 184.15625 186.65625 181.773438 197.234375 173.429688 189.636719 C 176.53125 194.140625 180.78125 199.851562 186.3125 200.199219 C 186.382812 211.882812 204.039062 215.5625 217.757812 206.546875 C 220.890625 210.070312 225.574219 210.945312 231.8125 209.160156 C 223.105469 221.382812 215.429688 224.253906 208.789062 217.773438 C 200.117188 218.113281 193.253906 217.214844 189.242188 213.671875 C 189.707031 220.457031 193.546875 221.578125 200.164062 220.394531 C 207.820312 224.417969 208.53125 232.75 200.164062 233.113281 C 173.324219 230.910156 164.324219 211.46875 172.015625 184.292969 C 170.023438 173.625 171.910156 162.738281 177.683594 151.632812 L 177.007812 138.007812 L 181.773438 121.875 C 204.617188 134.320312 227.089844 143.324219 249.179688 148.898438 " fill-opacity="1" fill-rule="nonzero"/><path fill="#252524" d="M 182.324219 148.679688 C 184.039062 145.871094 186.921875 144.945312 190.976562 145.898438 L 204.171875 155.761719 L 204.390625 163.089844 L 197.507812 175.625 L 201.832031 162.871094 L 200.398438 157.21875 C 195.984375 152.203125 189.960938 149.355469 182.324219 148.679688 " fill-opacity="1" fill-rule="evenodd"/><path fill="#252524" d="M 189.363281 158.097656 C 189.363281 158.789062 189.921875 159.347656 190.613281 159.347656 C 191.304688 159.347656 191.863281 158.789062 191.863281 158.097656 C 191.863281 157.410156 191.304688 156.847656 190.613281 156.847656 C 189.921875 156.847656 189.363281 157.410156 189.363281 158.097656 Z M 198.957031 163.9375 L 196.355469 163.183594 C 196.503906 161.535156 196.28125 160.101562 195.695312 158.882812 C 195.238281 158.496094 194.785156 158.136719 194.332031 157.8125 L 194.339844 158.011719 C 194.339844 160 192.726562 161.609375 190.738281 161.609375 C 188.753906 161.609375 187.140625 160 187.140625 158.011719 C 187.140625 156.882812 187.660156 155.875 188.476562 155.214844 C 186.324219 154.878906 184.207031 155.246094 182.132812 156.328125 C 186.257812 152.003906 191.25 152.570312 197.113281 158.027344 L 198.957031 163.9375 " fill-opacity="1" fill-rule="nonzero"/><path fill="#b5bac0" d="M 236.050781 338.855469 C 228.921875 345.84375 173.535156 332.578125 164.003906 323.921875 C 164.34375 323.058594 164.644531 322.183594 164.914062 321.308594 C 203.757812 338.082031 226.335938 336.902344 232.648438 317.761719 C 216.019531 326.996094 194 325.171875 166.585938 312.285156 C 167.636719 296.136719 158.15625 283.605469 146.996094 297.761719 C 147.351562 286.644531 135.34375 285.9375 130.929688 293.347656 C 127.757812 283.816406 119.105469 289.289062 117.335938 296.351562 C 110.453125 288.054688 105.863281 301.726562 106.730469 307.777344 C 105.867188 307.242188 105.011719 306.703125 104.167969 306.152344 C 101.570312 299.367188 100.121094 286.3125 84.03125 289.972656 C 81.289062 287.238281 78.699219 284.390625 76.265625 281.417969 C 76.878906 277.777344 77.273438 274.492188 77.480469 271.546875 C 86.953125 282.742188 106.550781 287.96875 117.902344 290.210938 C 101.78125 279.441406 90.664062 276.621094 77.40625 261.5625 C 75.636719 245.394531 65.261719 248.128906 61.640625 259.984375 C 68.132812 234.605469 54.726562 241.070312 54.296875 241.964844 C 55.511719 234.285156 53.441406 232.941406 51.234375 230.765625 C 70.742188 215.902344 91.398438 213.492188 113.199219 223.539062 C 95.125 221.863281 82.925781 224.9375 76.605469 232.765625 C 113.773438 226.832031 138.324219 227.957031 150.253906 236.144531 C 131.039062 234.082031 114.433594 239.617188 100.4375 252.753906 C 117.605469 245.890625 138.773438 242.917969 163.9375 243.835938 C 180.132812 249.085938 189.460938 255.234375 191.921875 262.285156 C 161.871094 260.039062 145.777344 264.804688 143.640625 276.585938 C 151.492188 270.988281 170.660156 268.578125 201.144531 269.359375 C 213.449219 274.691406 218.832031 280.074219 217.289062 285.503906 C 190.589844 280.773438 175.78125 283.949219 172.855469 295.035156 C 179.886719 289.816406 196.648438 289.046875 223.132812 292.730469 C 233.515625 303.363281 237.820312 318.738281 236.050781 338.855469 " fill-opacity="1" fill-rule="evenodd"/><path fill="#b5bac0" d="M 248.050781 219.714844 C 257.671875 230.074219 258.089844 254.132812 256.230469 262.839844 L 237.765625 248.316406 L 262.578125 274.855469 L 263.105469 236.121094 C 296.992188 255.085938 307.921875 284.300781 311.824219 312.105469 C 292.679688 331.253906 269.136719 346.007812 242.84375 354.722656 C 246.667969 321.949219 240.410156 299.289062 224.070312 286.746094 C 223.359375 283.84375 222.082031 280.828125 220.242188 277.699219 C 225.746094 273.300781 231.59375 265.394531 237.777344 253.984375 C 229.992188 262.523438 222.046875 267.53125 213.945312 269.011719 C 211.117188 265.703125 207.734375 262.285156 203.800781 258.75 C 221.089844 256.769531 239.117188 238.574219 248.050781 219.714844 " fill-opacity="1" fill-rule="nonzero"/><path fill="#b5bac0" d="M 43.460938 243.214844 C 43.539062 246.539062 44.839844 247.628906 47.367188 246.480469 C 45.949219 246.269531 44.648438 245.183594 43.460938 243.214844 Z M 52.566406 253.121094 C 52.640625 256.449219 53.941406 257.539062 56.46875 256.394531 C 55.050781 256.179688 53.75 255.09375 52.566406 253.121094 Z M 63.765625 262.191406 C 63.84375 265.519531 66.488281 267.109375 69.015625 265.957031 C 67.59375 265.75 64.949219 264.160156 63.765625 262.191406 Z M 35.683594 239.449219 C 35.761719 242.777344 37.0625 243.863281 39.589844 242.71875 C 38.171875 242.507812 36.871094 241.417969 35.683594 239.449219 Z M 97.171875 299.496094 C 105.058594 307.035156 102.691406 317.59375 92.882812 316.425781 L 55.582031 304.019531 C 45.210938 292.25 36.386719 279.085938 29.433594 264.839844 L 28.050781 259.703125 C 30.679688 248.855469 32.894531 241.46875 36.078125 236.265625 C 37.972656 233.210938 43.320312 236.140625 42.46875 239.953125 L 33.292969 264.863281 L 36.390625 273.527344 L 34.492188 264.949219 L 44.023438 239.925781 C 47.324219 234.378906 53.457031 239.628906 51.195312 246.425781 L 41.15625 272.570312 L 45.925781 288.0625 L 58.324219 298.316406 L 49.746094 288.304688 L 44.503906 272.808594 L 53.078125 248.5 C 55.402344 242.296875 63.320312 247.679688 61.179688 255.894531 L 55.457031 279.964844 L 61.65625 291.875 L 71.90625 299.03125 L 65.46875 292.59375 L 59.042969 278.53125 L 63.089844 259.464844 C 64.953125 252.421875 74 254.960938 73.578125 263.515625 L 71.910156 280.929688 C 75.054688 283.617188 77.4375 286.554688 79.0625 289.726562 C 88.835938 293.492188 94.582031 297.023438 97.171875 299.496094 " fill-opacity="1" fill-rule="nonzero"/><path fill="#b5bac0" d="M 154.246094 307.144531 C 151.925781 307.265625 149.898438 307.058594 148.152344 306.523438 C 149.304688 308.976562 151.335938 309.183594 154.246094 307.144531 Z M 185.753906 347.214844 L 165.640625 349.3125 C 159.132812 349.488281 153.042969 347.640625 147.359375 343.761719 L 143.042969 325.308594 L 146.609375 303.191406 C 148.492188 294.183594 158.980469 296.382812 158.453125 305.128906 L 156.742188 323.507812 C 158.558594 326.242188 159.847656 329.992188 160.613281 334.75 C 178.726562 338.699219 194.15625 341.066406 206.902344 341.855469 C 226.453125 350.003906 216.355469 358.636719 199.53125 352.769531 L 185.753906 347.214844 " fill-opacity="1" fill-rule="evenodd"/><path fill="#b5bac0" d="M 140.546875 301.78125 C 138.226562 301.898438 136.195312 301.691406 134.453125 301.15625 C 135.605469 303.609375 137.632812 303.816406 140.546875 301.78125 Z M 145.34375 343.550781 C 141.332031 344.570312 138.011719 343.550781 135.386719 340.488281 L 128.632812 324.203125 L 132.976562 297.730469 C 135.386719 289.050781 144.671875 291.601562 143.640625 299.675781 L 139.585938 324.914062 L 145.34375 343.550781 " fill-opacity="1" fill-rule="evenodd"/><path fill="#b5bac0" d="M 126.160156 303.71875 C 123.84375 303.839844 121.8125 303.628906 120.066406 303.09375 C 121.21875 305.546875 123.25 305.753906 126.160156 303.71875 Z M 129.34375 303.492188 L 126.464844 323.851562 L 132.976562 339.070312 C 127.707031 336.535156 122.609375 331.8125 117.683594 324.914062 L 119.292969 302.503906 C 120.460938 292.886719 130.371094 294.171875 129.34375 303.492188 " fill-opacity="1" fill-rule="evenodd"/><path fill="#b5bac0" d="M 115.117188 307.96875 C 112.800781 308.089844 110.769531 307.882812 109.027344 307.347656 C 110.175781 309.800781 112.207031 310.007812 115.117188 307.96875 Z M 126.417969 338.359375 C 117.902344 336.074219 111.027344 331.445312 105.792969 324.488281 L 108.433594 304.996094 C 109.761719 299.109375 117.667969 298.9375 117.398438 305.136719 L 116.179688 325.339844 L 126.417969 338.359375 " fill-opacity="1" fill-rule="evenodd"/></svg>